<?xml version="1.0" encoding="UTF-8" standalone="no"?>
<!-- Created with Inkscape (http://www.inkscape.org/) -->

<svg
   width="146.13884mm"
   height="25.037771mm"
   viewBox="0 0 146.13884 25.037771"
   version="1.1"
   id="svg5"
   inkscape:version="1.1.1 (3bf5ae0d25, 2021-09-20)"
   sodipodi:docname="barde_banner.svg"
   xmlns:inkscape="http://www.inkscape.org/namespaces/inkscape"
   xmlns:sodipodi="http://sodipodi.sourceforge.net/DTD/sodipodi-0.dtd"
   xmlns:xlink="http://www.w3.org/1999/xlink"
   xmlns="http://www.w3.org/2000/svg"
   xmlns:svg="http://www.w3.org/2000/svg">
  <sodipodi:namedview
     id="namedview7"
     pagecolor="#505050"
     bordercolor="#eeeeee"
     borderopacity="1"
     inkscape:pageshadow="0"
     inkscape:pageopacity="0"
     inkscape:pagecheckerboard="0"
     inkscape:document-units="mm"
     showgrid="false"
     inkscape:zoom="1.4645623"
     inkscape:cx="196.30438"
     inkscape:cy="115.05144"
     inkscape:window-width="1920"
     inkscape:window-height="1017"
     inkscape:window-x="2552"
     inkscape:window-y="-8"
     inkscape:window-maximized="1"
     inkscape:current-layer="layer1"
     fit-margin-top="0"
     fit-margin-left="0"
     fit-margin-right="0"
     fit-margin-bottom="0" />
  <defs
     id="defs2">
    <linearGradient
       inkscape:collect="always"
       id="linearGradient1488">
      <stop
         style="stop-color:#849ccd;stop-opacity:1;"
         offset="0"
         id="stop1484" />
      <stop
         style="stop-color:#5866c7;stop-opacity:0.58983666"
         offset="1"
         id="stop1486" />
    </linearGradient>
    <linearGradient
       inkscape:collect="always"
       xlink:href="#linearGradient1488"
       id="linearGradient1490"
       x1="22.504782"
       y1="55.469181"
       x2="168.64362"
       y2="62.622833"
       gradientUnits="userSpaceOnUse" />
  </defs>
  <g
     inkscape:label="Layer 1"
     inkscape:groupmode="layer"
     id="layer1"
     transform="translate(-16.373083,-45.760658)">
    <path
       id="rect888"
       style="fill:url(#linearGradient1490);stroke-width:1.116;stroke-linejoin:round;stroke-miterlimit:10;paint-order:stroke markers fill"
       d="M 16.373083,45.760658 H 162.51192 l -6.1317,25.037771 H 16.373083 Z"
       sodipodi:nodetypes="ccccc" />
    <g
       id="g12882"
       style="opacity:0.201954"
       transform="matrix(1.1006748,0,0,1.1006748,-18.262804,-63.044429)">
      <path
         id="path15"
         style="fill-rule:evenodd;stroke:#000000;stroke-width:0.00415278;stroke-miterlimit:10"
         d="m 55.117427,100.55428 -2.255189,3.289 c 0.137272,0.31965 0.319533,0.59385 0.547936,0.85547 0.236477,0.25747 0.514483,0.46927 0.851319,0.6686 -0.685208,1.24583 -1.196231,2.45429 -1.58267,3.72089 -0.364521,1.24583 -0.605613,2.25519 -0.672519,3.77902 -0.06229,1.52038 -0.02884,3.57947 0.307998,5.29941 0.352986,1.71071 0.892847,3.22994 1.76493,4.87951 0.880158,1.63574 1.814533,3.42143 3.475644,4.8749 1.68995,1.44079 3.820556,2.65778 6.519861,3.71674 v 0.85132 c 0.191489,0.46142 0.830555,0.80172 1.951805,1.03819 1.124711,0.22379 2.699306,0.36106 4.754815,0.36568 l 9.568,-27.48793 c 0.04983,-0.20718 0.02907,-0.41066 -0.06229,-0.61 -0.09136,-0.20763 -0.25332,-0.41112 -0.485875,-0.61045 0.170264,-1.11295 0.01661,-2.05563 -0.427736,-2.92356 -0.436042,-0.87208 -1.171083,-1.78569 -2.254958,-2.19682 -1.092181,-0.419429 -2.487514,-0.58554 -4.202611,-0.240859 -1.706792,0.344679 -4.078028,1.777389 -5.91344,2.313099 -1.819147,0.53155 -3.36375,0.85962 -4.938344,0.85547 -1.565367,-0.0291 -3.209175,-0.57308 -4.389256,-0.9759 -1.166238,-0.41943 -1.996793,-0.88454 -2.557418,-1.46178 z m 11.153668,25.415 8.775165,-19.38078 c -0.423584,-0.14558 -0.62707,-0.35322 -0.610459,-0.67298 0.02492,-0.31562 0.269931,-0.72674 0.735042,-1.21677 -0.137042,-0.47757 -0.390361,-0.7475 -0.79318,-0.79318 -0.394514,-0.0581 -0.618764,0.0997 -1.586361,0.49003 -0.967598,0.38205 -2.578875,1.33304 -4.145049,1.82722 -1.560752,0.49418 -3.416813,0.85963 -5.119452,1.09633 -1.691103,0.22841 -3.297997,0.299 -4.93373,0.24502 -0.622917,0.93022 -0.963214,2.11376 -1.038195,3.5963 -0.06691,1.48301 -0.07037,3.36791 0.610228,5.24127 0.705972,1.85606 2.172133,4.23929 3.534475,5.8508 1.370416,1.60344 2.856188,2.81928 4.571516,3.71674 z" />
      <path
         id="path17"
         style="fill:#ffffff;fill-rule:evenodd;stroke:#000000;stroke-width:0.00415278;stroke-miterlimit:10"
         d="m 78.945718,104.94377 c -0.08721,0.14534 -0.315611,0.19518 -0.730889,0.18272 -0.40282,-0.0291 -0.97175,-0.12043 -1.706792,-0.30731 -0.04568,-0.79318 -0.232555,-1.34135 -0.606305,-1.6445 -0.365445,-0.3073 -0.942681,-0.26162 -1.586361,-0.18272 -0.62707,0.0706 -1.117097,0.19933 -2.192667,0.61046 -1.075569,0.40282 -2.616249,1.33304 -4.206648,1.82722 -1.58267,0.49418 -3.596767,0.91361 -5.240574,1.09633 -1.636887,0.16196 -3.139962,0.24917 -4.510378,-0.12043 -1.357728,-0.39036 -2.499741,-1.07557 -3.537936,-2.13452 l 0.975903,-2.19267 c 0.975903,0.64368 2.183669,1.07972 3.720196,1.34135 1.553831,0.25332 3.580617,0.4485 5.423989,0.18272 1.8526,-0.28654 3.961288,-1.2749 5.544073,-1.82722 1.594667,-0.56063 2.612098,-1.42856 3.903611,-1.46593 1.303972,-0.0457 2.969236,0.43604 3.779028,1.22091 0.79318,0.78072 1.117097,1.89782 0.97175,3.41359 z" />
      <path
         id="path19"
         style="fill:#ffffff;fill-rule:evenodd;stroke:#000000;stroke-width:0.00415278;stroke-miterlimit:10"
         d="m 79.008009,107.56417 -8.899402,25.04932 c -0.323916,0.17419 -0.892847,0.20303 -1.706907,0.11997 -0.82248,-0.0992 -1.85606,-0.31146 -3.1688,-0.66791 l 10.971985,-24.99164 c 0.934375,0.16196 1.868749,0.32392 2.803124,0.49003 z" />
      <path
         id="path21"
         style="fill:#ffffff;fill-rule:evenodd;stroke:#000000;stroke-width:0.00415278;stroke-miterlimit:10"
         d="m 57.251493,107.62231 c -0.220328,-0.0498 -0.519097,-0.17442 -0.913611,-0.42359 -0.3899,-0.24916 -0.846705,-0.58969 -1.40387,-1.03819 -1.000127,1.54483 -1.594205,3.35129 -1.827222,5.48628 -0.215714,2.14675 -0.220328,4.78723 0.486798,7.25006 0.725583,2.45014 1.95988,5.349 3.779028,7.31696 1.827222,1.95181 4.140088,3.36836 7.067796,4.32812 l 1.465008,-3.53448 c -1.864136,-1.09241 -3.434117,-2.20904 -4.754931,-3.41335 -1.308124,-1.20431 -2.349779,-2.25519 -3.109968,-3.77903 -0.742886,-1.55383 -1.261983,-3.30953 -1.399256,-5.36516 -0.129197,-2.05562 0.07498,-4.29443 0.610228,-6.82762 z" />
      <path
         id="path23"
         style="fill:#ffffff;fill-rule:evenodd;stroke:#000000;stroke-width:0.00415278;stroke-miterlimit:10"
         d="m 79.435745,105.67465 c -0.361291,0.0747 -0.726736,0.12043 -1.096333,0.12043 -0.365444,-0.004 -0.631222,0.004 -1.100486,-0.12043 -0.465111,-0.13288 -0.992514,-0.35713 -1.6445,-0.67275 -0.361291,0.27824 -0.544014,0.5108 -0.548166,0.73089 0.0042,0.21179 0.186875,0.39452 0.548166,0.54817 0.510792,0.19518 1.079722,0.33222 1.706792,0.42774 0.635375,0.0872 1.320583,0.12873 2.072236,0.12458 0.361291,-0.25747 0.544014,-0.48172 0.548166,-0.67275 0.01661,-0.19518 -0.145347,-0.35714 -0.485875,-0.48588 z" />
      <path
         id="path25"
         style="fill-rule:evenodd;stroke:#000000;stroke-width:0.00415278;stroke-miterlimit:10"
         d="m 74.680815,108.54007 -2.31725,-4.45178 -0.548166,0.24502 2.562264,4.81307 z" />
      <path
         id="path27"
         style="fill-rule:evenodd;stroke:#000000;stroke-width:0.00415278;stroke-miterlimit:10"
         d="m 73.767204,110.48772 -2.927708,-5.78897 -0.548167,0.24502 3.172722,6.15441 z" />
      <path
         id="path29"
         style="fill-rule:evenodd;stroke:#000000;stroke-width:0.00415278;stroke-miterlimit:10"
         d="m 72.72901,112.56042 -3.596305,-7.01046 -0.548744,0.24501 3.841896,7.37568 z" />
      <path
         id="path31"
         style="fill-rule:evenodd;stroke:#000000;stroke-width:0.00415278;stroke-miterlimit:10"
         d="m 71.694968,115.18013 -4.634845,-8.95731 -0.543322,0.24501 4.870862,9.32253 z" />
      <path
         id="path33"
         style="fill-rule:evenodd;stroke:#000000;stroke-width:0.00415278;stroke-miterlimit:10"
         d="m 70.598635,117.61758 -5.365735,-10.96702 -0.547935,0.24086 5.606364,11.33754 z" />
      <path
         id="path35"
         style="fill-rule:evenodd;stroke:#000000;stroke-width:0.00415278;stroke-miterlimit:10"
         d="m 69.743163,119.87738 -6.639715,-12.9855 -0.549089,0.24455 6.885651,13.34657 z" />
      <path
         id="path37"
         style="fill-rule:evenodd;stroke:#000000;stroke-width:0.00415278;stroke-miterlimit:10"
         d="m 68.526284,122.61822 -8.288252,-15.54408 -0.549089,0.24501 8.530497,15.90514 0.306844,-0.60561 z" />
      <path
         id="path39"
         style="fill:#000000;fill-rule:evenodd;stroke-width:0.115355"
         d="m 64.788784,128.46094 c -0.415278,0.92976 -1.801844,1.217 -3.089205,0.63907 -1.291975,-0.58139 -2.001408,-1.80184 -1.58613,-2.7316 0.415277,-0.93092 1.801844,-1.217 3.089205,-0.64022 1.291975,0.57792 2.001408,1.80299 1.58613,2.73275 z m -0.622917,-0.26531 c -0.298769,0.6679 -1.30005,0.87554 -2.22981,0.46026 -0.930915,-0.41873 -1.440784,-1.30005 -1.142014,-1.96795 0.303383,-0.67252 1.30005,-0.88016 2.229811,-0.46142 0.92976,0.41528 1.440783,1.29543 1.142013,1.96911 z" />
      <path
         id="path41"
         style="fill:#000000;fill-rule:evenodd;stroke-width:0.115355"
         d="m 62.305192,126.84944 c -0.48103,0.82709 -1.801844,0.95975 -2.948472,0.2953 -1.150088,-0.66444 -1.689949,-1.87682 -1.21238,-2.70392 0.482184,-0.82594 1.801844,-0.95859 2.948472,-0.29415 1.146628,0.6679 1.68995,1.87682 1.21238,2.70277 z m -0.55601,-0.30685 c -0.344912,0.59408 -1.300051,0.68867 -2.125992,0.2111 -0.827095,-0.48103 -1.216994,-1.35311 -0.872083,-1.94719 0.343758,-0.59754 1.298896,-0.69328 2.125991,-0.21225 0.825942,0.47757 1.216995,1.34965 0.872084,1.94834 z" />
      <path
         id="path43"
         style="fill:#000000;fill-rule:evenodd;stroke-width:0.115355"
         d="m 60.092685,125.28868 c -0.603307,0.61831 -1.785695,0.43951 -2.646242,-0.39451 -0.859395,-0.83978 -1.062419,-2.01871 -0.460267,-2.63701 0.602153,-0.61946 1.785695,-0.44066 2.645089,0.39797 0.859394,0.83517 1.062419,2.0141 0.46142,2.63355 z m -0.419892,-0.39451 c -0.432581,0.44758 -1.287361,0.31953 -1.905664,-0.28262 -0.619456,-0.60677 -0.764803,-1.45347 -0.333375,-1.9022 0.436041,-0.44412 1.291975,-0.31608 1.906817,0.28608 0.618302,0.60215 0.768263,1.45347 0.332222,1.89874 z" />
      <path
         id="path45"
         style="fill:#000000;fill-rule:evenodd;stroke-width:0.115355"
         d="m 57.840957,123.59412 c -0.667906,0.33568 -1.590745,-0.14189 -2.059086,-1.07165 -0.469495,-0.92976 -0.303383,-1.95988 0.364522,-2.29671 0.673672,-0.33569 1.595358,0.14188 2.064853,1.07626 0.46488,0.92514 0.30223,1.95526 -0.370289,2.2921 z m -0.228403,-0.44066 c -0.485644,0.2411 -1.150089,-0.10382 -1.486925,-0.77633 -0.335683,-0.66906 -0.219175,-1.40734 0.26647,-1.65304 0.482183,-0.24109 1.146628,0.10382 1.48231,0.77288 0.336837,0.67252 0.220328,1.41194 -0.261855,1.65649 z" />
      <path
         id="path47"
         style="fill:#000000;fill-rule:evenodd;stroke-width:0.115355"
         d="m 56.745085,121.70461 c -0.669059,0.33568 -1.590745,-0.14189 -2.060239,-1.07165 -0.469495,-0.92976 -0.30223,-1.95988 0.365675,-2.29672 0.672519,-0.33568 1.594205,0.14535 2.063699,1.07626 0.464881,0.92515 0.303384,1.95527 -0.369135,2.29211 z m -0.233017,-0.44066 c -0.48103,0.24109 -1.145475,-0.10382 -1.482311,-0.77634 -0.336837,-0.66906 -0.220328,-1.40733 0.261856,-1.65303 0.485644,-0.2411 1.150088,0.10381 1.486925,0.77287 0.335682,0.67252 0.220328,1.41195 -0.26647,1.6565 z" />
      <path
         id="path49"
         style="fill:#000000;fill-rule:evenodd;stroke-width:0.115355"
         d="m 55.88569,120.01812 c -0.726736,0.18687 -1.528452,-0.47757 -1.790308,-1.48231 -0.261856,-1.00936 0.111894,-1.98065 0.83863,-2.16752 0.726736,-0.19149 1.528453,0.47295 1.790309,1.48231 0.265316,1.00474 -0.111894,1.97718 -0.838631,2.16752 z m -0.133811,-0.48103 c -0.522558,0.13612 -1.099333,-0.34491 -1.290822,-1.06819 -0.186875,-0.72674 0.08306,-1.42809 0.606767,-1.56075 0.522558,-0.13727 1.099332,0.34029 1.290822,1.06703 0.186875,0.72674 -0.08306,1.42463 -0.606767,1.56191 z" />
      <path
         id="path51"
         style="fill:#000000;fill-rule:evenodd;stroke-width:0.115355"
         d="m 55.237396,117.98326 c -0.689823,0.10843 -1.370417,-0.57678 -1.523839,-1.53192 -0.153422,-0.95514 0.28262,-1.81914 0.971289,-1.92758 0.685208,-0.11189 1.370416,0.57332 1.524992,1.52845 0.148808,0.95514 -0.28262,1.81915 -0.972442,1.93105 z m -0.08306,-0.45681 c -0.493719,0.0796 -0.983977,-0.41528 -1.095872,-1.10395 -0.108433,-0.6852 0.203025,-1.30812 0.696744,-1.38772 0.498333,-0.0784 0.988592,0.41182 1.100486,1.10049 0.108434,0.68982 -0.203024,1.31274 -0.701358,1.39118 z" />
      <path
         id="path53"
         style="fill:#000000;fill-rule:evenodd;stroke-width:0.115355"
         d="m 55.017068,115.92763 c -0.643681,0.0381 -1.207766,-0.65983 -1.257369,-1.55729 -0.04614,-0.89631 0.434888,-1.65304 1.083183,-1.68534 0.64368,-0.0335 1.20892,0.66445 1.253908,1.56076 0.0496,0.89284 -0.431427,1.64842 -1.079722,1.68187 z m -0.02884,-0.42797 c -0.46488,0.0254 -0.872083,-0.47757 -0.908997,-1.12125 -0.03345,-0.64714 0.314919,-1.19161 0.7798,-1.21584 0.466033,-0.0254 0.873236,0.47757 0.905536,1.12471 0.03807,0.64368 -0.311459,1.18816 -0.776339,1.21238 z" />
      <path
         id="path55"
         style="fill:#000000;fill-rule:evenodd;stroke-width:0.115355"
         d="m 54.568337,114.20884 c -0.639066,-0.0957 -1.04973,-0.89284 -0.917072,-1.77762 0.128044,-0.88823 0.755575,-1.53237 1.395795,-1.43686 0.639066,0.0955 1.04973,0.88893 0.921686,1.77716 -0.132658,0.88939 -0.760189,1.53307 -1.400409,1.43732 z m 0.05883,-0.42796 c -0.46142,-0.0669 -0.760189,-0.63907 -0.664444,-1.27929 0.09574,-0.63907 0.544475,-1.10395 1.004741,-1.03819 0.46142,0.0704 0.760189,0.64368 0.664445,1.2839 -0.09575,0.63906 -0.544476,1.10394 -1.004742,1.03358 z" />
      <path
         id="path57"
         style="fill:#000000;fill-rule:evenodd;stroke-width:0.115355"
         d="m 54.598329,112.41046 c -0.62753,-0.15804 -0.959753,-0.98859 -0.744039,-1.86045 0.215714,-0.86793 0.900922,-1.44931 1.528453,-1.29151 0.627531,0.15781 0.959753,0.98836 0.742886,1.86045 -0.215714,0.86816 -0.900922,1.44955 -1.5273,1.29151 z m 0.09459,-0.41989 c -0.452191,-0.1119 -0.688668,-0.71405 -0.535246,-1.34089 0.158036,-0.62707 0.651755,-1.04235 1.1051,-0.93022 0.447577,0.11212 0.688669,0.71428 0.535247,1.34135 -0.158037,0.62753 -0.651756,1.04281 -1.105101,0.92976 z" />
      <path
         id="path59"
         style="fill:#000000;fill-rule:evenodd;stroke-width:0.115355"
         d="m 54.951316,110.76596 c -0.611382,-0.1495 -0.930915,-0.95929 -0.723276,-1.80231 0.212253,-0.84716 0.876698,-1.40779 1.483465,-1.25413 0.610227,0.15365 0.934374,0.95929 0.722121,1.8023 -0.212253,0.84301 -0.876697,1.40779 -1.48231,1.25414 z m 0.09113,-0.40697 c -0.436042,-0.10798 -0.669059,-0.68936 -0.519097,-1.29982 0.153422,-0.60631 0.630991,-1.01328 1.071647,-0.90115 0.436042,0.10797 0.667905,0.68936 0.519097,1.29981 -0.153422,0.60631 -0.632145,1.01328 -1.071647,0.90116 z" />
      <path
         id="path61"
         style="fill:#000000;fill-rule:evenodd;stroke-width:0.115355"
         d="m 67.887217,132.30688 c -0.980517,-0.28262 -1.450011,-1.61613 -1.055497,-2.97385 0.399128,-1.35773 1.515764,-2.22635 2.492012,-1.93912 0.980056,0.28608 1.44932,1.61497 1.054806,2.97731 -0.398667,1.35427 -1.511611,2.22174 -2.491321,1.93566 z m 0.177647,-0.65291 c -0.705972,-0.20764 -1.041655,-1.16624 -0.759035,-2.14214 0.28608,-0.98052 1.091257,-1.6069 1.797806,-1.39926 0.70182,0.20764 1.042347,1.16624 0.755806,2.14676 -0.286542,0.9759 -1.088605,1.60228 -1.794577,1.39464 z" />
      <path
         id="path63"
         style="fill:#000000;fill-rule:evenodd;stroke-width:0.115355"
         d="m 68.858621,129.5695 c -0.888348,-0.26185 -1.316315,-1.46962 -0.955254,-2.70276 0.361061,-1.2343 1.374685,-2.02333 2.263379,-1.76147 0.888695,0.25724 1.316431,1.46962 0.955139,2.70392 -0.361292,1.23314 -1.374569,2.02217 -2.263264,1.76031 z m 0.161959,-0.59407 c -0.639644,-0.18688 -0.946488,-1.05896 -0.689246,-1.94719 0.261856,-0.88824 0.992398,-1.45809 1.631926,-1.27122 0.639528,0.18688 0.950986,1.05896 0.689361,1.94835 -0.261625,0.88823 -0.988361,1.45693 -1.632041,1.27006 z" />
      <path
         id="path65"
         style="fill:#000000;fill-rule:evenodd;stroke-width:0.115355"
         d="m 69.772232,126.8875 c -0.888694,-0.25839 -1.316315,-1.47077 -0.955254,-2.6993 0.361407,-1.23776 1.374685,-2.02679 2.263379,-1.76493 0.888695,0.2607 1.316431,1.46962 0.955139,2.70276 -0.361292,1.23315 -1.374569,2.02218 -2.263264,1.76147 z m 0.166111,-0.59408 c -0.64368,-0.18687 -0.950986,-1.05895 -0.689361,-1.94834 0.257473,-0.88823 0.988361,-1.45693 1.627889,-1.27006 0.639528,0.18688 0.950986,1.06242 0.689361,1.95181 -0.257472,0.88823 -0.988361,1.45693 -1.627889,1.26659 z" />
      <path
         id="path67"
         style="fill:#000000;fill-rule:evenodd;stroke-width:0.115355"
         d="m 70.943316,124.15013 c -0.793181,-0.23186 -1.175236,-1.31159 -0.855473,-2.41207 0.323917,-1.10049 1.229223,-1.80646 2.022403,-1.5746 0.793181,0.23302 1.175236,1.31274 0.855472,2.41323 -0.323916,1.10049 -1.229222,1.80646 -2.022402,1.57344 z m 0.145347,-0.53179 c -0.573084,-0.16611 -0.847167,-0.94245 -0.614611,-1.73955 0.232555,-0.79364 0.884541,-1.30005 1.457625,-1.13394 0.56893,0.17073 0.847166,0.94707 0.614611,1.74071 -0.232556,0.79249 -0.884542,1.30351 -1.457625,1.13278 z" />
      <path
         id="path69"
         style="fill:#000000;fill-rule:evenodd;stroke-width:0.115355"
         d="m 71.856927,121.89494 c -0.793181,-0.23186 -1.175236,-1.31158 -0.85132,-2.41207 0.319764,-1.10049 1.22507,-1.80646 2.01825,-1.57459 0.793181,0.23301 1.175236,1.31273 0.855472,2.41322 -0.323916,1.10049 -1.229222,1.80646 -2.022402,1.57344 z m 0.145347,-0.53063 c -0.568931,-0.16611 -0.847167,-0.94707 -0.614611,-1.74071 0.232555,-0.79249 0.884541,-1.30005 1.457625,-1.13394 0.56893,0.17073 0.847166,0.94707 0.614611,1.74071 -0.232556,0.79249 -0.884542,1.30351 -1.457625,1.13394 z" />
      <path
         id="path71"
         style="fill:#000000;fill-rule:evenodd;stroke-width:0.115355"
         d="m 72.874357,119.46211 c -0.710125,-0.20764 -1.054805,-1.17547 -0.764111,-2.15945 0.286542,-0.98859 1.096333,-1.61958 1.810611,-1.41194 0.710125,0.20764 1.050653,1.17546 0.764111,2.1629 -0.290694,0.98513 -1.100486,1.61612 -1.810611,1.40849 z m 0.128736,-0.47411 c -0.510791,-0.14881 -0.755805,-0.84671 -0.548166,-1.55729 0.207638,-0.70944 0.789027,-1.16624 1.299819,-1.01743 0.514944,0.14996 0.759958,0.84785 0.552319,1.55729 -0.207639,0.71058 -0.789027,1.16739 -1.303972,1.01743 z" />
      <path
         id="path73"
         style="fill:#000000;fill-rule:evenodd;stroke-width:0.115355"
         d="m 73.725676,117.57259 c -0.710125,-0.20764 -1.050652,-1.17546 -0.764111,-2.15944 0.290695,-0.98859 1.100486,-1.61959 1.810611,-1.41195 0.710125,0.20764 1.050653,1.17547 0.764111,2.16291 -0.286541,0.98513 -1.096333,1.61612 -1.810611,1.40848 z m 0.132889,-0.47411 c -0.510791,-0.1488 -0.759958,-0.8467 -0.552319,-1.56075 0.207639,-0.70597 0.79318,-1.16278 1.303972,-1.01397 0.510792,0.14996 0.759958,0.84786 0.552319,1.55729 -0.207638,0.71059 -0.79318,1.16739 -1.303972,1.01743 z" />
      <path
         id="path75"
         style="fill:#000000;fill-rule:evenodd;stroke-width:0.115355"
         d="m 74.556232,115.3797 c -0.676903,-0.19495 -1.000819,-1.11664 -0.726736,-2.05102 0.274083,-0.93898 1.042347,-1.53652 1.71925,-1.34157 0.67275,0.19956 0.996666,1.11663 0.722583,2.05562 -0.274083,0.93438 -1.042347,1.53653 -1.715097,1.33697 z m 0.124583,-0.44874 c -0.485875,-0.14534 -0.722583,-0.80517 -0.52325,-1.48231 0.195181,-0.67252 0.7475,-1.1051 1.237528,-0.96321 0.485875,0.14073 0.71843,0.80518 0.52325,1.4777 -0.199333,0.67713 -0.751653,1.10971 -1.237528,0.96782 z" />
      <path
         id="path77"
         style="fill:#000000;fill-rule:evenodd;stroke-width:0.115355"
         d="m 75.224829,113.55247 c -0.67275,-0.19956 -0.996666,-1.11663 -0.726736,-2.05562 0.274083,-0.93438 1.042347,-1.53238 1.71925,-1.3372 0.676903,0.19934 1.000819,1.11687 0.726736,2.05586 -0.274083,0.93437 -1.042347,1.53191 -1.71925,1.33696 z m 0.124583,-0.45219 c -0.485875,-0.14188 -0.71843,-0.80633 -0.52325,-1.47885 0.195181,-0.67275 0.751653,-1.10879 1.237528,-0.96344 0.485875,0.14119 0.718431,0.80194 0.52325,1.47792 -0.19518,0.67368 -0.751653,1.1051 -1.237528,0.96437 z" />
      <path
         id="path79"
         style="fill:#000000;fill-rule:evenodd;stroke-width:0.115355"
         d="m 76.01801,111.53838 c -0.676903,-0.19495 -1.00082,-1.11295 -0.726736,-2.05148 0.274083,-0.93437 1.042347,-1.53652 1.719249,-1.33719 0.67275,0.19518 0.996667,1.1171 0.722584,2.05147 -0.274084,0.93853 -1.042347,1.53676 -1.715097,1.3372 z m 0.124583,-0.4485 c -0.490028,-0.1412 -0.722583,-0.80564 -0.52325,-1.47839 0.195181,-0.67691 0.7475,-1.10879 1.237528,-0.9676 0.485875,0.14535 0.71843,0.80564 0.52325,1.48254 -0.199334,0.67275 -0.751653,1.1051 -1.237528,0.96345 z" />
      <path
         id="path81"
         style="fill-rule:evenodd;stroke:#000000;stroke-width:0.00415278;stroke-miterlimit:10"
         d="m 72.243135,102.62652 c 0,0.26993 -0.232556,0.48587 -0.519097,0.48587 -0.286542,0 -0.514945,-0.21594 -0.514945,-0.48587 0,-0.26994 0.228403,-0.49003 0.514945,-0.49003 0.286541,0 0.519097,0.22009 0.519097,0.49003 z" />
      <path
         id="path83"
         style="fill-rule:evenodd;stroke:#000000;stroke-width:0.00415278;stroke-miterlimit:10"
         d="m 70.170899,103.4197 c 0,0.26993 -0.232556,0.48587 -0.519097,0.48587 -0.286542,0 -0.514945,-0.21594 -0.514945,-0.48587 0,-0.26993 0.228403,-0.49003 0.514945,-0.49003 0.286541,0 0.519097,0.2201 0.519097,0.49003 z" />
      <path
         id="path85"
         style="fill-rule:evenodd;stroke:#000000;stroke-width:0.00415278;stroke-miterlimit:10"
         d="m 68.463992,104.15058 c 0,0.26994 -0.233017,0.48588 -0.519097,0.48588 -0.28262,0 -0.514483,-0.21594 -0.514483,-0.48588 0,-0.26993 0.231863,-0.48587 0.514483,-0.48587 0.28608,0 0.519097,0.21594 0.519097,0.48587 z" />
      <path
         id="path87"
         style="fill-rule:evenodd;stroke:#000000;stroke-width:0.00415278;stroke-miterlimit:10"
         d="m 66.63677,104.69875 c 0,0.26993 -0.233017,0.48588 -0.519097,0.48588 -0.28608,0 -0.519097,-0.21595 -0.519097,-0.48588 0,-0.26993 0.233017,-0.48587 0.519097,-0.48587 0.28608,0 0.519097,0.21594 0.519097,0.48587 z" />
      <path
         id="path89"
         style="fill-rule:evenodd;stroke:#000000;stroke-width:0.00415278;stroke-miterlimit:10"
         d="m 64.684965,105.18463 c 0,0.26993 -0.233017,0.49002 -0.519098,0.49002 -0.28608,0 -0.514483,-0.22009 -0.514483,-0.49002 0,-0.26993 0.228403,-0.48588 0.514483,-0.48588 0.286081,0 0.519098,0.21595 0.519098,0.48588 z" />
      <path
         id="path91"
         style="fill-rule:evenodd;stroke:#000000;stroke-width:0.00415278;stroke-miterlimit:10"
         d="m 62.737773,105.36735 c 0,0.26993 -0.233017,0.49003 -0.519097,0.49003 -0.287234,0 -0.519097,-0.2201 -0.519097,-0.49003 0,-0.26578 0.231863,-0.48588 0.519097,-0.48588 0.28608,0 0.519097,0.2201 0.519097,0.48588 z" />
      <path
         id="path93"
         style="fill-rule:evenodd;stroke:#000000;stroke-width:0.00415278;stroke-miterlimit:10"
         d="m 60.358001,105.12649 c 0,0.26578 -0.233017,0.48587 -0.519097,0.48587 -0.28262,0 -0.514483,-0.22009 -0.514483,-0.48587 0,-0.26993 0.231863,-0.49003 0.514483,-0.49003 0.28608,0 0.519097,0.2201 0.519097,0.49003 z" />
    </g>
    <text
       xml:space="preserve"
       style="font-style:normal;font-variant:normal;font-weight:normal;font-stretch:normal;font-size:19.5966px;line-height:1.25;font-family:'Hey August';-inkscape-font-specification:'Hey August';fill:#f5f5f8;fill-opacity:1;stroke:none;stroke-width:0.489849;stroke-miterlimit:10;stroke-dasharray:none;stroke-opacity:0.345098"
       x="20.276699"
       y="65.595154"
       id="text1904"><tspan
         sodipodi:role="line"
         id="tspan1902"
         style="font-style:normal;font-variant:normal;font-weight:normal;font-stretch:normal;font-family:'Hey August';-inkscape-font-specification:'Hey August';fill:#f5f5f8;fill-opacity:1;stroke:none;stroke-width:0.489849;stroke-miterlimit:10;stroke-dasharray:none;stroke-opacity:0.345098"
         x="20.276699"
         y="65.595154">Barde</tspan></text>
  </g>
</svg>
